<svg width="1026" height="984" viewBox="0 0 1026 984" fill="none" xmlns="http://www.w3.org/2000/svg">
<g clip-path="url(#clip0_22_2)">
<path opacity="0.6" d="M332.648 471.82C332.648 434.14 363.195 403.594 400.875 403.594H606.088C643.768 403.594 674.314 434.14 674.314 471.82V471.82C674.314 509.501 643.768 540.047 606.088 540.047H400.875C363.195 540.047 332.648 509.501 332.648 471.82V471.82Z" fill="black"/>
<path d="M508.616 540.047C498.451 540.123 488.023 540.228 478.057 540.047C453.71 540.073 428.258 540.176 403.912 540.047C364.138 539.836 334.729 512.725 332.351 474.703C331.756 465.2 334.355 454.043 337.36 447.316C338.981 448.44 340.877 449.26 342.279 450.014C349.524 453.909 356.675 458.024 364.187 461.388C377.423 467.316 391.44 470.683 406.107 470.756C440.165 470.926 474.522 470.815 508.694 470.859C508.808 470.851 508.992 470.774 508.992 471.282C508.992 494.335 508.631 517.432 508.616 540.047Z" fill="#27617E"/>
<path d="M508.992 403.594C510.495 403.594 511.637 403.621 512.96 403.621C542.828 403.613 572.874 403.211 602.742 403.32C637.916 403.448 666.753 426.262 673.313 459.328C675.926 472.504 674.962 485.042 668.792 497.589C647.836 481.34 622.862 472.232 596.663 470.859C567.424 469.327 538.32 471.305 508.992 471.34C508.992 471.34 508.984 470.788 508.999 470.347C509.007 447.913 509 425.586 508.992 403.594Z" fill="#ADCB44"/>
<path d="M509.197 403.815C509.632 425.91 509.318 448.638 509.197 471.08C475.01 471.476 440.555 471.25 406.496 471.08C391.829 471.007 377.812 467.639 364.577 461.712C357.064 458.347 349.838 454.554 342.668 450.338C341.266 449.584 338.66 448.416 337.313 447.392C345.471 423.813 374.282 404.01 400.986 403.815C436.64 403.554 473.113 403.701 509.197 403.815Z" fill="#338F96"/>
<path d="M527.027 470.379C519.012 470.379 515.354 470.757 508.992 470.859C508.97 479.763 508.49 499.946 508.49 499.946C508.246 513.758 508.202 526.451 508.489 540.306C520.658 540.342 533.521 539.949 545.742 540.035C566.059 540.18 586.349 540.324 606.276 540.237C611.044 540.216 615.925 539.523 620.55 538.381C642.995 532.836 660.24 518.992 668.802 498.024C648.112 481.569 623.79 471.748 597.665 470.379C574.842 469.183 549.961 470.379 527.027 470.379Z" fill="#8BB539"/>
<path d="M364.783 682.266C351.883 680.892 341.464 675.731 332.914 666.954C330.376 664.348 329.918 662.238 333.374 659.953C336.241 658.058 338.602 654.486 341.601 653.999C345.113 653.429 346.383 658.19 348.988 660.299C357.341 667.063 366.683 669.657 377.382 667.217C378.971 666.855 380.55 666.177 381.939 665.346C384.089 664.058 385.204 662.061 384.609 659.602C383.976 656.984 381.865 656.185 379.284 656.192C373.107 656.209 366.929 656.26 360.752 656.218C348.05 656.131 339.006 645.024 342.023 633.269C343.829 626.236 350.182 621.49 358.715 621.107C363.714 620.882 368.732 620.951 373.738 621.04C376.601 621.091 378.116 620.228 378.038 617.21C377.963 614.26 376.152 613.91 373.719 613.914C360.53 613.936 347.339 613.797 334.152 613.961C330.032 614.012 328.516 612.653 328.641 608.677C328.953 598.696 327.303 599.289 338.264 599.285C453.463 599.246 568.662 599.209 683.861 599.222C686.201 599.222 689.69 598.098 690.466 601.026C691.469 604.812 691.841 609.032 690.078 612.767C689.26 614.502 686.716 613.979 684.981 613.77C680.012 613.172 678.557 615.233 678.892 619.774C679.318 625.528 679.064 631.243 676.068 636.595C672.631 642.734 666.779 646.005 660.484 649.185C661.198 651.941 663.32 653.595 665.041 655.434C669.836 660.557 674.676 665.644 679.637 670.618C681.747 672.733 682.415 674.248 679.492 676.347C667.546 684.927 670.389 685.848 660.973 674.754C651.281 663.335 642.053 651.553 632.44 640.07C629.402 636.441 629.853 634.303 633.937 631.746C642.065 626.657 642.018 626.388 648.26 633.844C650.188 636.147 651.828 636.604 654.569 635.174C661.095 631.767 664.822 622.041 661.957 615.54C661.164 613.742 659.673 613.899 658.212 613.896C644.188 613.864 630.163 613.915 616.14 613.816C612.847 613.793 611.729 615.108 611.819 618.148C611.971 623.267 611.729 628.398 611.896 633.517C612.004 636.847 610.595 638.097 607.173 638.018C601.167 637.879 595.154 637.975 589.143 638.002C578.365 638.051 571.855 642.899 571.547 651.075C571.215 659.912 577.924 666.302 588.364 667.202C596.456 667.9 603.965 666.415 610.785 662.061C612.023 661.271 613.332 660.582 615.037 659.599C618.226 663.073 619.701 667.315 621.524 671.318C622.263 672.942 620.591 673.854 619.393 674.72C605.887 684.482 581.174 684.86 567.317 675.518C557.381 668.821 552.552 656.574 555.3 645.045C557.848 634.358 567.439 625.964 579.365 623.922C583.327 623.244 587.316 622.921 591.325 623.104C595.023 623.272 595.193 621.095 595.203 618.428C595.214 615.668 594.757 613.852 591.166 613.862C564.287 613.936 537.407 613.911 510.527 613.864C507.763 613.859 506.505 614.923 506.667 617.579C506.878 621.039 506.191 624.551 507.187 628.338C512.315 627.06 516.981 624.633 522.295 625.31C533.77 626.771 541.181 633.092 543.442 643.473C539.552 646.711 544.2 644.011 534.542 649.671C545.195 624.899 538.552 641.503 536.666 645.347C522.213 637.179 540.674 637.625 536.666 646.308C536.248 643.371 546.064 640.542 534.542 649.671C528.029 648.633 532.538 649.671 527.103 648.135C526.789 642.346 521.781 638.9 515.945 640.457C510.154 642.002 506.659 646.26 506.628 652.007C506.582 660.493 506.521 668.981 506.681 677.465C506.743 680.773 505.467 682.023 502.023 682.003C487.551 681.916 490.272 683.196 489.971 671.141C489.919 669.08 489.963 667.016 489.963 664.382C485.242 665.703 481.307 667.703 476.78 667.996C462.536 668.917 451.124 659.449 450.211 645.593C449.4 633.292 460.139 621.862 473.276 621.043C484.708 620.331 484.715 620.331 484.655 631.155C484.648 632.409 484.508 633.662 484.416 635.133C481.001 635.722 477.672 634.913 474.455 635.909C470.164 637.238 467.565 639.632 467.399 644.11C467.228 648.729 469.436 651.699 474.018 653.111C481.404 655.387 489.88 649.773 489.951 642.429C490.028 634.424 489.789 626.413 490.022 618.413C490.131 614.664 488.494 613.826 484.969 613.856C470.111 613.983 455.25 614.033 440.394 613.83C436.251 613.774 435.324 615.353 435.349 618.938C435.479 637.992 435.287 657.048 435.526 676.1C435.585 680.765 433.997 682.211 429.216 682.078C416.422 681.723 418.082 683.099 418.051 671.159C418.005 653.866 417.912 636.572 418.106 619.281C418.154 615.048 416.716 613.544 412.334 613.859C408.017 614.169 403.654 614.022 399.318 613.897C396.292 613.81 395.106 615.051 395.17 617.892C395.253 621.572 394.874 625.272 395.136 628.935C395.487 633.832 393.343 635.339 388.381 635.13C380.382 634.795 372.357 635.051 364.343 635.05C361.577 635.05 358.517 635.023 358.543 638.651C358.569 642.19 361.577 642.337 364.365 642.327C369.874 642.309 375.384 642.195 380.892 642.243C392.68 642.345 398.799 646.695 400.986 656.408C403.085 665.727 398.092 675.271 388.67 679.274C381.215 682.441 373.359 683.579 364.783 682.266Z" fill="#27617E"/>
<path d="M379.658 501.275C367.727 479.082 362.972 454.992 359.986 430.337C358.778 420.367 358.499 410.33 358.826 400.267C358.985 395.369 360.229 393.211 365.412 394.232C383.748 416.566 426.823 408.427 452.937 429.464C479.399 450.782 493.593 489.757 481.064 522.998C480.563 525.88 474.374 539.109 471.545 540.343C459.589 515.793 445.478 480.148 423.315 465.186C440.385 486.7 459.681 513.359 468.858 540.343C446.441 541.255 399.306 540.437 379.658 501.275Z" fill="#ADCB44"/>
<path d="M567.87 462.717C572.052 462.633 572.07 462.629 572.098 459.203C572.121 456.501 572.037 453.798 572.12 451.098C572.224 447.71 574.206 445.964 578.001 445.912C582.018 445.857 586.036 445.869 590.053 445.912C594.092 445.954 595.967 447.521 596.147 451.166C596.292 454.123 596.296 457.094 596.176 460.052C596.093 462.127 597.049 462.825 599.302 462.747C602.628 462.633 605.964 462.679 609.294 462.716C613.484 462.764 615.149 464.266 615.178 467.995C615.206 471.568 615.208 475.141 615.173 478.714C615.139 482.211 613.406 483.766 609.392 483.836C605.964 483.896 602.53 483.933 599.105 483.82C596.892 483.747 596.164 484.554 596.236 486.438C596.342 489.223 596.273 492.015 596.237 494.803C596.184 498.856 594.287 500.592 589.836 500.626C585.819 500.657 581.801 500.661 577.785 500.609C574.112 500.561 572.198 498.918 572.073 495.611C571.962 492.651 571.946 489.681 572.078 486.723C572.172 484.629 571.424 483.711 568.915 483.816C565.494 483.959 562.057 483.884 558.63 483.811C554.936 483.732 553.226 482.244 553.147 478.979C553.056 475.233 553.067 471.484 553.113 467.737C553.153 464.479 554.773 462.939 558.478 462.777C561.509 462.644 564.552 462.73 567.87 462.717ZM585.815 459.232C582.731 458.433 581.259 459.259 581.102 461.952C581.02 463.343 581.076 464.741 581.076 466.136C581.077 470.744 581.078 470.744 575.756 470.751C574.285 470.753 572.815 470.757 571.344 470.75C569.396 470.741 567.733 471.166 567.595 473.217C567.444 475.454 569.291 476.012 571.253 476.127C573.694 476.271 576.153 476.247 578.602 476.198C580.35 476.163 581.096 476.802 581.059 478.361C581.006 480.539 581.103 482.721 581.074 484.9C581.049 486.768 582.009 488.114 584.086 488.059C586.033 488.007 587.221 486.795 587.196 484.883C587.171 482.878 587.33 480.866 587.191 478.869C587.045 476.77 588.054 476.119 590.298 476.193C592.836 476.277 595.401 476.23 597.923 475.987C599.628 475.822 600.803 474.803 600.683 473.118C600.559 471.373 599.21 470.783 597.444 470.759C595.484 470.733 593.523 470.748 591.563 470.737C587.221 470.712 587.358 470.704 587.154 466.826C587.025 464.374 588.095 461.754 585.815 459.232Z" fill="white"/>
<path d="M425.467 580.526C408.775 591.385 387.097 585.879 379.583 569.321C377.957 565.74 378.569 563.623 382.374 562.276C383.773 561.781 385.156 561.155 386.403 560.378C389.503 558.447 391.402 558.968 392.781 562.43C395.244 568.612 399.748 572.54 407.012 572.564C414.528 572.589 418.995 568.533 421.415 562.069C422.344 559.587 423.707 559.062 426.361 560.012C436.697 563.712 437.73 567.13 430.647 575.53C429.19 577.258 427.389 578.719 425.467 580.526Z" fill="#27617E"/>
<path d="M456.209 497.284C479.755 545.331 471.92 540.047 469.916 540.047C468.623 540.76 469.28 547.733 447.191 502.089C434.602 481.091 421.897 464.441 423.19 463.728C424.484 463.015 452.84 490.408 456.209 497.284Z" fill="white"/>
</g>
<defs>
<clipPath id="clip0_22_2">
<rect width="1026" height="984" fill="white"/>
</clipPath>
</defs>
</svg>
